<svg width="18" height="20" viewBox="0 0 18 20" fill="none" xmlns="http://www.w3.org/2000/svg">
<g clip-path="url(#clip0_5_394)">
<path d="M15.625 2.5C16.1458 2.5 16.5885 2.68229 16.9531 3.04688C17.3177 3.41146 17.5 3.85417 17.5 4.375V18.125C17.5 18.6458 17.3177 19.0885 16.9531 19.4531C16.5885 19.8177 16.1458 20 15.625 20H1.875C1.35417 20 0.911458 19.8177 0.546875 19.4531C0.182292 19.0885 0 18.6458 0 18.125V4.375C0 3.85417 0.182292 3.41146 0.546875 3.04688C0.911458 2.68229 1.35417 2.5 1.875 2.5H3.75V0.46875C3.75 0.15625 3.90625 0 4.21875 0H4.53125C4.84375 0 5 0.15625 5 0.46875V2.5H12.5V0.46875C12.5 0.15625 12.6562 0 12.9688 0H13.2812C13.5938 0 13.75 0.15625 13.75 0.46875V2.5H15.625ZM1.875 3.75C1.69271 3.75 1.54297 3.80859 1.42578 3.92578C1.30859 4.04297 1.25 4.19271 1.25 4.375V6.25H16.25V4.375C16.25 4.19271 16.1914 4.04297 16.0742 3.92578C15.957 3.80859 15.8073 3.75 15.625 3.75H1.875ZM15.625 18.75C15.8073 18.75 15.957 18.6914 16.0742 18.5742C16.1914 18.457 16.25 18.3073 16.25 18.125V7.5H1.25V18.125C1.25 18.3073 1.30859 18.457 1.42578 18.5742C1.54297 18.6914 1.69271 18.75 1.875 18.75H15.625Z" fill="#06ADEF"/>
</g>
<defs>
<clipPath id="clip0_5_394">
<rect width="17.5" height="20" fill="white" transform="matrix(1 0 0 -1 0 20)"/>
</clipPath>
</defs>
</svg>
