<svg width="18" height="21" viewBox="0 0 18 21" fill="none" xmlns="http://www.w3.org/2000/svg">
<g clip-path="url(#clip0_5_531)">
<path d="M17.2656 4.95312H0.234375C0.078125 4.95312 0 4.875 0 4.71875V3.78125C0 3.625 0.078125 3.54688 0.234375 3.54688H17.2656C17.4219 3.54688 17.5 3.625 17.5 3.78125V4.71875C17.5 4.875 17.4219 4.95312 17.2656 4.95312ZM17.2656 11.2031H0.234375C0.078125 11.2031 0 11.125 0 10.9688V10.0312C0 9.875 0.078125 9.79688 0.234375 9.79688H17.2656C17.4219 9.79688 17.5 9.875 17.5 10.0312V10.9688C17.5 11.125 17.4219 11.2031 17.2656 11.2031ZM17.2656 17.4531H0.234375C0.078125 17.4531 0 17.375 0 17.2188V16.2812C0 16.125 0.078125 16.0469 0.234375 16.0469H17.2656C17.4219 16.0469 17.5 16.125 17.5 16.2812V17.2188C17.5 17.375 17.4219 17.4531 17.2656 17.4531Z" fill="#0B3052"/>
</g>
<defs>
<clipPath id="clip0_5_531">
<rect width="17.5" height="21" fill="white" transform="matrix(1 0 0 -1 0 21)"/>
</clipPath>
</defs>
</svg>
