<svg width="16" height="18" viewBox="0 0 16 18" fill="none" xmlns="http://www.w3.org/2000/svg">
<g clip-path="url(#clip0_5_542)">
<path d="M14.0625 2.25C14.5312 2.25 14.9297 2.41406 15.2578 2.74219C15.5859 3.07031 15.75 3.46875 15.75 3.9375V16.3125C15.75 16.7812 15.5859 17.1797 15.2578 17.5078C14.9297 17.8359 14.5312 18 14.0625 18H1.6875C1.21875 18 0.820312 17.8359 0.492188 17.5078C0.164063 17.1797 0 16.7812 0 16.3125V3.9375C0 3.46875 0.164063 3.07031 0.492188 2.74219C0.820312 2.41406 1.21875 2.25 1.6875 2.25H3.375V0.421875C3.375 0.140625 3.51562 0 3.79688 0H4.07812C4.35938 0 4.5 0.140625 4.5 0.421875V2.25H11.25V0.421875C11.25 0.140625 11.3906 0 11.6719 0H11.9531C12.2344 0 12.375 0.140625 12.375 0.421875V2.25H14.0625ZM1.6875 3.375C1.52344 3.375 1.38867 3.42773 1.2832 3.5332C1.17773 3.63867 1.125 3.77344 1.125 3.9375V5.625H14.625V3.9375C14.625 3.77344 14.5723 3.63867 14.4668 3.5332C14.3613 3.42773 14.2266 3.375 14.0625 3.375H1.6875ZM14.0625 16.875C14.2266 16.875 14.3613 16.8223 14.4668 16.7168C14.5723 16.6113 14.625 16.4766 14.625 16.3125V6.75H1.125V16.3125C1.125 16.4766 1.17773 16.6113 1.2832 16.7168C1.38867 16.8223 1.52344 16.875 1.6875 16.875H14.0625ZM11.7422 10.0195L6.99609 14.7305C6.78516 14.918 6.58594 14.918 6.39844 14.7305L4.00781 12.3398C3.82031 12.1523 3.82031 11.9531 4.00781 11.7422L4.32422 11.4609C4.51172 11.25 4.71094 11.25 4.92188 11.4609L6.67969 13.2188L10.8281 9.10547C11.0391 8.91797 11.2383 8.92969 11.4258 9.14062L11.7422 9.42188C11.9297 9.63281 11.9297 9.83203 11.7422 10.0195Z" fill="#0B3052"/>
</g>
<defs>
<clipPath id="clip0_5_542">
<rect width="15.75" height="18" fill="white" transform="matrix(1 0 0 -1 0 18)"/>
</clipPath>
</defs>
</svg>
