<svg width="16" height="18" viewBox="0 0 16 18" fill="none" xmlns="http://www.w3.org/2000/svg">
<g clip-path="url(#clip0_5_536)">
<path d="M7.08398 16.541C7.08398 16.541 7.13964 16.5967 7.25097 16.708C7.3623 16.8193 7.57031 16.875 7.87499 16.875C8.17968 16.875 8.44335 16.7637 8.66601 16.541C8.88866 16.3184 8.99999 16.0547 8.99999 15.75H10.125C10.125 16.3594 9.90234 16.8867 9.45702 17.332C9.01171 17.7773 8.48437 18 7.87499 18C7.26562 18 6.73827 17.7773 6.29296 17.332C5.84765 16.8867 5.62499 16.3594 5.62499 15.75H6.74999C6.74999 16.0547 6.86132 16.3184 7.08398 16.541ZM15.2226 11.7773C15.7617 12.293 15.9023 12.8906 15.6445 13.5703C15.3633 14.2734 14.8359 14.625 14.0625 14.625H1.68749C0.914055 14.625 0.386712 14.2734 0.105462 13.5703C-0.152351 12.8906 -0.0117259 12.293 0.527337 11.7773C1.11327 11.2148 1.54687 10.5762 1.82812 9.86133C2.10937 9.14648 2.24999 8.03906 2.24999 6.53906C2.24999 5.15625 2.73632 3.94922 3.70898 2.91797C4.68163 1.88672 5.88281 1.3125 7.31249 1.19531V0.5625C7.31249 0.398438 7.36523 0.263672 7.4707 0.158203C7.57616 0.0527344 7.71093 0 7.87499 0C8.03905 0 8.17382 0.0527344 8.27929 0.158203C8.38476 0.263672 8.43749 0.398438 8.43749 0.5625V1.19531C9.86718 1.3125 11.0684 1.88672 12.041 2.91797C13.0137 3.94922 13.5 5.15625 13.5 6.53906C13.5 8.03906 13.6406 9.14648 13.9219 9.86133C14.2031 10.5762 14.6367 11.2148 15.2226 11.7773ZM14.0625 13.5C14.3203 13.5 14.4961 13.3887 14.5898 13.166C14.6836 12.9434 14.6367 12.75 14.4492 12.5859C13.7461 11.9062 13.2246 11.1387 12.8848 10.2832C12.5449 9.42773 12.375 8.17969 12.375 6.53906C12.375 5.34375 11.9355 4.33008 11.0566 3.49805C10.1777 2.66602 9.11718 2.25 7.87499 2.25C6.63281 2.25 5.57226 2.66602 4.69335 3.49805C3.81445 4.33008 3.37499 5.34375 3.37499 6.53906C3.37499 8.17969 3.20507 9.42773 2.86523 10.2832C2.52538 11.1387 2.0039 11.9062 1.30077 12.5859C1.11327 12.75 1.0664 12.9434 1.16015 13.166C1.2539 13.3887 1.42968 13.5 1.68749 13.5H14.0625Z" fill="#0B3052"/>
</g>
<defs>
<clipPath id="clip0_5_536">
<rect width="15.75" height="18" fill="white" transform="matrix(1 0 0 -1 0 18)"/>
</clipPath>
</defs>
</svg>
