<svg width="18" height="18" viewBox="0 0 18 18" fill="none" xmlns="http://www.w3.org/2000/svg">
<g clip-path="url(#clip0_5_557)">
<path d="M17.8594 16.9453C18.0703 17.1328 18.0703 17.332 17.8594 17.543L17.543 17.8594C17.332 18.0703 17.1328 18.0703 16.9453 17.8594L12.4102 13.3594C12.3164 13.2656 12.2695 13.1602 12.2695 13.043V12.6914C10.8633 13.9805 9.21094 14.625 7.3125 14.625C5.29688 14.625 3.57422 13.9102 2.14453 12.4805C0.714844 11.0508 0 9.32812 0 7.3125C0 5.29688 0.714844 3.57422 2.14453 2.14453C3.57422 0.714844 5.29688 0 7.3125 0C9.32812 0 11.0508 0.714844 12.4805 2.14453C13.9102 3.57422 14.625 5.29688 14.625 7.3125C14.625 9.21094 13.9805 10.8633 12.6914 12.2695H13.043C13.1602 12.2695 13.2656 12.3164 13.3594 12.4102L17.8594 16.9453ZM2.93555 11.6895C2.93555 11.6895 3.2373 11.9912 3.84082 12.5947C4.44434 13.1982 5.60156 13.5 7.3125 13.5C9.02344 13.5 10.4824 12.8965 11.6895 11.6895C12.8965 10.4824 13.5 9.02344 13.5 7.3125C13.5 5.60156 12.8965 4.14258 11.6895 2.93555C10.4824 1.72852 9.02344 1.125 7.3125 1.125C5.60156 1.125 4.14258 1.72852 2.93555 2.93555C1.72852 4.14258 1.125 5.60156 1.125 7.3125C1.125 9.02344 1.72852 10.4824 2.93555 11.6895Z" fill="#0B3052"/>
</g>
<defs>
<clipPath id="clip0_5_557">
<rect width="18" height="18" fill="white" transform="matrix(1 0 0 -1 0 18)"/>
</clipPath>
</defs>
</svg>
