<svg width="22" height="22" viewBox="0 0 22 22" fill="none" xmlns="http://www.w3.org/2000/svg">
<path d="M14.3473 18.3133C14.3215 18.3133 14.2957 18.3176 14.2699 18.3219C13.8574 18.3992 13.4449 18.4379 13.041 18.4379C9.54766 18.4379 6.5957 15.5977 6.5957 11.9754C6.5957 9.64649 7.8418 7.50664 9.86563 6.35508C10.1793 6.17891 10.0977 5.70625 9.74531 5.6375C9.24687 5.54727 8.74414 5.5 8.24141 5.5C3.69102 5.5 0 9.19102 0 13.75C0 18.3047 3.68672 22 8.24141 22C10.7852 22 13.1055 20.8441 14.6437 18.9449C14.8543 18.6871 14.6566 18.3133 14.3473 18.3133ZM8.24141 20.625C4.45586 20.625 1.375 17.5398 1.375 13.75C1.375 10.377 3.81562 7.5625 7.02109 6.98242C5.87812 8.36602 5.225 10.1277 5.225 11.9754C5.225 15.834 8.02227 19.0523 11.6918 19.6969C10.6605 20.2984 9.47461 20.625 8.24141 20.625ZM21.6219 8.32305L19.5336 7.27891L18.4895 5.19063C18.2574 4.72656 17.4926 4.72656 17.2605 5.19063L16.2164 7.27891L14.1281 8.32305C13.8961 8.43906 13.75 8.67539 13.75 8.9375C13.75 9.19961 13.8961 9.43594 14.1281 9.55195L16.2164 10.5961L17.2605 12.6844C17.3766 12.9164 17.6129 13.0625 17.875 13.0625C18.1371 13.0625 18.3734 12.9164 18.4895 12.6844L19.5336 10.5961L21.6219 9.55195C21.8539 9.43594 22 9.19961 22 8.9375C22 8.67539 21.8539 8.43906 21.6219 8.32305ZM18.7129 9.47031C18.5797 9.53477 18.4723 9.64648 18.4035 9.77969L17.875 10.8367L17.3465 9.77539C17.2777 9.64219 17.1703 9.53477 17.0371 9.46602L15.9758 8.9375L17.0371 8.40469C17.1703 8.34023 17.2777 8.22852 17.3465 8.09531L17.875 7.03398L18.4035 8.09531C18.4723 8.22852 18.5797 8.33594 18.7129 8.40469L19.7742 8.9375L18.7129 9.47031ZM13.0625 4.125L13.75 2.75L15.125 2.0625L13.75 1.375L13.0625 0L12.375 1.375L11 2.0625L12.375 2.75L13.0625 4.125Z" fill="#0B3052"/>
</svg>
